<mxfile host="app.diagrams.net" agent="Mozilla/5.0 (Windows NT 10.0; Win64; x64) AppleWebKit/537.36 (KHTML, like Gecko) Chrome/141.0.0.0 Safari/537.36" version="28.2.8">
  <diagram name="Page-1" id="BAHJBfu4T64Hl18o-nmP">
    <mxGraphModel dx="228" dy="119" grid="1" gridSize="10" guides="1" tooltips="1" connect="1" arrows="1" fold="1" page="1" pageScale="1" pageWidth="850" pageHeight="1100" math="0" shadow="0">
      <root>
        <mxCell id="0" />
        <mxCell id="1" parent="0" />
        <mxCell id="GFKIRWwXAdBLUny3JA9--16" value="" style="group" vertex="1" connectable="0" parent="1">
          <mxGeometry x="80" y="120" width="80" height="80" as="geometry" />
        </mxCell>
        <mxCell id="GFKIRWwXAdBLUny3JA9--1" value="" style="whiteSpace=wrap;html=1;aspect=fixed;" vertex="1" parent="GFKIRWwXAdBLUny3JA9--16">
          <mxGeometry width="80" height="80" as="geometry" />
        </mxCell>
        <mxCell id="GFKIRWwXAdBLUny3JA9--14" value="" style="whiteSpace=wrap;html=1;aspect=fixed;" vertex="1" parent="GFKIRWwXAdBLUny3JA9--16">
          <mxGeometry width="40" height="40" as="geometry" />
        </mxCell>
        <mxCell id="GFKIRWwXAdBLUny3JA9--17" value="" style="endArrow=none;html=1;rounded=0;entryX=1;entryY=1;entryDx=0;entryDy=0;exitX=0;exitY=1;exitDx=0;exitDy=0;dashed=1;dashPattern=12 12;" edge="1" parent="1" source="GFKIRWwXAdBLUny3JA9--18" target="GFKIRWwXAdBLUny3JA9--14">
          <mxGeometry width="50" height="50" relative="1" as="geometry">
            <mxPoint x="320" y="230" as="sourcePoint" />
            <mxPoint x="370" y="180" as="targetPoint" />
          </mxGeometry>
        </mxCell>
        <mxCell id="GFKIRWwXAdBLUny3JA9--7" value="" style="endArrow=none;html=1;rounded=0;entryX=0;entryY=0;entryDx=0;entryDy=0;exitX=0;exitY=0;exitDx=0;exitDy=0;" edge="1" parent="1" source="GFKIRWwXAdBLUny3JA9--2" target="GFKIRWwXAdBLUny3JA9--1">
          <mxGeometry width="50" height="50" relative="1" as="geometry">
            <mxPoint x="500" y="360" as="sourcePoint" />
            <mxPoint x="190" y="220" as="targetPoint" />
          </mxGeometry>
        </mxCell>
        <mxCell id="GFKIRWwXAdBLUny3JA9--5" value="" style="endArrow=none;html=1;rounded=0;exitX=1;exitY=0;exitDx=0;exitDy=0;entryX=1;entryY=0;entryDx=0;entryDy=0;" edge="1" parent="1" source="GFKIRWwXAdBLUny3JA9--1" target="GFKIRWwXAdBLUny3JA9--2">
          <mxGeometry width="50" height="50" relative="1" as="geometry">
            <mxPoint x="320" y="320" as="sourcePoint" />
            <mxPoint x="360" y="230" as="targetPoint" />
          </mxGeometry>
        </mxCell>
        <mxCell id="GFKIRWwXAdBLUny3JA9--6" value="" style="endArrow=none;html=1;rounded=0;entryX=0;entryY=1;entryDx=0;entryDy=0;exitX=0;exitY=1;exitDx=0;exitDy=0;" edge="1" parent="1" source="GFKIRWwXAdBLUny3JA9--2" target="GFKIRWwXAdBLUny3JA9--1">
          <mxGeometry width="50" height="50" relative="1" as="geometry">
            <mxPoint x="410" y="450" as="sourcePoint" />
            <mxPoint x="260" y="310" as="targetPoint" />
          </mxGeometry>
        </mxCell>
        <mxCell id="GFKIRWwXAdBLUny3JA9--8" value="" style="endArrow=none;html=1;rounded=0;exitX=1;exitY=1;exitDx=0;exitDy=0;entryX=1;entryY=1;entryDx=0;entryDy=0;" edge="1" parent="1" source="GFKIRWwXAdBLUny3JA9--2" target="GFKIRWwXAdBLUny3JA9--1">
          <mxGeometry width="50" height="50" relative="1" as="geometry">
            <mxPoint x="320" y="250" as="sourcePoint" />
            <mxPoint x="370" y="200" as="targetPoint" />
          </mxGeometry>
        </mxCell>
        <mxCell id="GFKIRWwXAdBLUny3JA9--19" value="" style="group" vertex="1" connectable="0" parent="1">
          <mxGeometry x="385" y="180" width="80" height="80" as="geometry" />
        </mxCell>
        <mxCell id="GFKIRWwXAdBLUny3JA9--2" value="" style="whiteSpace=wrap;html=1;aspect=fixed;" vertex="1" parent="GFKIRWwXAdBLUny3JA9--19">
          <mxGeometry width="80" height="80" as="geometry" />
        </mxCell>
        <mxCell id="GFKIRWwXAdBLUny3JA9--18" value="" style="whiteSpace=wrap;html=1;aspect=fixed;" vertex="1" parent="GFKIRWwXAdBLUny3JA9--19">
          <mxGeometry x="40" width="40" height="40" as="geometry" />
        </mxCell>
        <mxCell id="GFKIRWwXAdBLUny3JA9--22" value="" style="group" vertex="1" connectable="0" parent="1">
          <mxGeometry x="90" y="360" width="119" height="80" as="geometry" />
        </mxCell>
        <mxCell id="GFKIRWwXAdBLUny3JA9--20" value="" style="whiteSpace=wrap;html=1;aspect=fixed;" vertex="1" parent="GFKIRWwXAdBLUny3JA9--22">
          <mxGeometry width="80" height="80" as="geometry" />
        </mxCell>
        <mxCell id="GFKIRWwXAdBLUny3JA9--21" value="" style="whiteSpace=wrap;html=1;aspect=fixed;" vertex="1" parent="GFKIRWwXAdBLUny3JA9--22">
          <mxGeometry width="40" height="40" as="geometry" />
        </mxCell>
        <mxCell id="GFKIRWwXAdBLUny3JA9--33" value="" style="group" vertex="1" connectable="0" parent="GFKIRWwXAdBLUny3JA9--22">
          <mxGeometry x="60" y="29" width="30.25" height="30" as="geometry" />
        </mxCell>
        <mxCell id="GFKIRWwXAdBLUny3JA9--26" value="" style="whiteSpace=wrap;html=1;aspect=fixed;fillColor=none;" vertex="1" parent="GFKIRWwXAdBLUny3JA9--33">
          <mxGeometry width="22.5" height="22.5" as="geometry" />
        </mxCell>
        <mxCell id="GFKIRWwXAdBLUny3JA9--27" value="" style="whiteSpace=wrap;html=1;aspect=fixed;fillColor=none;" vertex="1" parent="GFKIRWwXAdBLUny3JA9--33">
          <mxGeometry width="11.25" height="11.25" as="geometry" />
        </mxCell>
        <mxCell id="GFKIRWwXAdBLUny3JA9--34" value="" style="whiteSpace=wrap;html=1;aspect=fixed;" vertex="1" parent="GFKIRWwXAdBLUny3JA9--33">
          <mxGeometry x="16.75" y="6.5" width="9.5" height="9.5" as="geometry" />
        </mxCell>
        <mxCell id="GFKIRWwXAdBLUny3JA9--35" value="" style="endArrow=none;html=1;rounded=0;exitX=1;exitY=1;exitDx=0;exitDy=0;entryX=1;entryY=1;entryDx=0;entryDy=0;" edge="1" parent="GFKIRWwXAdBLUny3JA9--33" source="GFKIRWwXAdBLUny3JA9--34" target="GFKIRWwXAdBLUny3JA9--26">
          <mxGeometry width="50" height="50" relative="1" as="geometry">
            <mxPoint x="60" y="21" as="sourcePoint" />
            <mxPoint x="110" y="-29" as="targetPoint" />
          </mxGeometry>
        </mxCell>
        <mxCell id="GFKIRWwXAdBLUny3JA9--36" value="" style="endArrow=none;html=1;rounded=0;exitX=1;exitY=0;exitDx=0;exitDy=0;entryX=1;entryY=0;entryDx=0;entryDy=0;" edge="1" parent="GFKIRWwXAdBLUny3JA9--33" source="GFKIRWwXAdBLUny3JA9--26" target="GFKIRWwXAdBLUny3JA9--34">
          <mxGeometry width="50" height="50" relative="1" as="geometry">
            <mxPoint x="60" y="21" as="sourcePoint" />
            <mxPoint x="70" y="-19" as="targetPoint" />
          </mxGeometry>
        </mxCell>
        <mxCell id="GFKIRWwXAdBLUny3JA9--24" value="" style="endArrow=none;html=1;rounded=0;exitX=1;exitY=0;exitDx=0;exitDy=0;entryX=1;entryY=0;entryDx=0;entryDy=0;" edge="1" parent="GFKIRWwXAdBLUny3JA9--22" source="GFKIRWwXAdBLUny3JA9--20" target="GFKIRWwXAdBLUny3JA9--26">
          <mxGeometry width="50" height="50" relative="1" as="geometry">
            <mxPoint x="240" y="10" as="sourcePoint" />
            <mxPoint x="160" y="20" as="targetPoint" />
          </mxGeometry>
        </mxCell>
        <mxCell id="GFKIRWwXAdBLUny3JA9--31" value="" style="endArrow=none;html=1;rounded=0;exitX=0;exitY=1;exitDx=0;exitDy=0;entryX=0;entryY=1;entryDx=0;entryDy=0;" edge="1" parent="GFKIRWwXAdBLUny3JA9--22" source="GFKIRWwXAdBLUny3JA9--20" target="GFKIRWwXAdBLUny3JA9--26">
          <mxGeometry width="50" height="50" relative="1" as="geometry">
            <mxPoint x="190" y="100" as="sourcePoint" />
            <mxPoint x="240" y="50" as="targetPoint" />
          </mxGeometry>
        </mxCell>
        <mxCell id="GFKIRWwXAdBLUny3JA9--32" value="" style="endArrow=none;html=1;rounded=0;exitX=1;exitY=1;exitDx=0;exitDy=0;entryX=1;entryY=1;entryDx=0;entryDy=0;" edge="1" parent="GFKIRWwXAdBLUny3JA9--22" source="GFKIRWwXAdBLUny3JA9--20" target="GFKIRWwXAdBLUny3JA9--26">
          <mxGeometry width="50" height="50" relative="1" as="geometry">
            <mxPoint x="190" y="100" as="sourcePoint" />
            <mxPoint x="240" y="50" as="targetPoint" />
          </mxGeometry>
        </mxCell>
        <mxCell id="GFKIRWwXAdBLUny3JA9--23" value="" style="endArrow=none;html=1;rounded=0;exitX=1;exitY=1;exitDx=0;exitDy=0;entryX=1;entryY=1;entryDx=0;entryDy=0;dashed=1;" edge="1" parent="GFKIRWwXAdBLUny3JA9--22" source="GFKIRWwXAdBLUny3JA9--21" target="GFKIRWwXAdBLUny3JA9--27">
          <mxGeometry width="50" height="50" relative="1" as="geometry">
            <mxPoint x="240" y="10" as="sourcePoint" />
            <mxPoint x="350" y="130" as="targetPoint" />
          </mxGeometry>
        </mxCell>
        <mxCell id="GFKIRWwXAdBLUny3JA9--30" value="" style="endArrow=none;html=1;rounded=0;exitX=0;exitY=0;exitDx=0;exitDy=0;entryX=0;entryY=0;entryDx=0;entryDy=0;" edge="1" parent="GFKIRWwXAdBLUny3JA9--22" source="GFKIRWwXAdBLUny3JA9--21" target="GFKIRWwXAdBLUny3JA9--27">
          <mxGeometry width="50" height="50" relative="1" as="geometry">
            <mxPoint x="190" y="100" as="sourcePoint" />
            <mxPoint x="240" y="50" as="targetPoint" />
          </mxGeometry>
        </mxCell>
        <mxCell id="GFKIRWwXAdBLUny3JA9--37" value="" style="endArrow=none;html=1;rounded=0;exitX=1;exitY=0.5;exitDx=0;exitDy=0;" edge="1" parent="1" source="GFKIRWwXAdBLUny3JA9--34">
          <mxGeometry width="50" height="50" relative="1" as="geometry">
            <mxPoint x="190.00000000000003" y="404.7" as="sourcePoint" />
            <mxPoint x="240" y="400" as="targetPoint" />
          </mxGeometry>
        </mxCell>
        <mxCell id="GFKIRWwXAdBLUny3JA9--39" value="" style="endArrow=none;html=1;rounded=0;exitX=1;exitY=1;exitDx=0;exitDy=0;" edge="1" parent="1" source="GFKIRWwXAdBLUny3JA9--34">
          <mxGeometry width="50" height="50" relative="1" as="geometry">
            <mxPoint x="170" y="440" as="sourcePoint" />
            <mxPoint x="240" y="400" as="targetPoint" />
          </mxGeometry>
        </mxCell>
        <mxCell id="GFKIRWwXAdBLUny3JA9--40" value="" style="endArrow=none;html=1;rounded=0;exitX=1;exitY=0;exitDx=0;exitDy=0;" edge="1" parent="1" source="GFKIRWwXAdBLUny3JA9--34">
          <mxGeometry width="50" height="50" relative="1" as="geometry">
            <mxPoint x="170" y="440" as="sourcePoint" />
            <mxPoint x="240" y="400" as="targetPoint" />
          </mxGeometry>
        </mxCell>
      </root>
    </mxGraphModel>
  </diagram>
</mxfile>
